<svg xmlns="http://www.w3.org/2000/svg" xmlns:xlink="http://www.w3.org/1999/xlink" width="500" zoomAndPan="magnify" viewBox="0 0 375 374.999991" height="500" preserveAspectRatio="xMidYMid meet" version="1.0"><defs><g/><clipPath id="ff55f59cff"><path d="M 89.914062 210.816406 L 182.804688 210.816406 L 182.804688 221.148438 L 89.914062 221.148438 Z M 89.914062 210.816406 " clip-rule="nonzero"/></clipPath><clipPath id="bf77a16b99"><path d="M 194.894531 152.109375 L 287.789062 152.109375 L 287.789062 162.4375 L 194.894531 162.4375 Z M 194.894531 152.109375 " clip-rule="nonzero"/></clipPath></defs><g clip-path="url(#ff55f59cff)"><path fill="#000000" d="M 89.914062 210.816406 L 182.800781 210.816406 L 182.800781 221.148438 L 89.914062 221.148438 Z M 89.914062 210.816406 " fill-opacity="1" fill-rule="nonzero"/></g><g clip-path="url(#bf77a16b99)"><path fill="#000000" d="M 194.894531 152.109375 L 287.785156 152.109375 L 287.785156 162.4375 L 194.894531 162.4375 Z M 194.894531 152.109375 " fill-opacity="1" fill-rule="nonzero"/></g><g fill="#000000" fill-opacity="1"><g transform="translate(91.036391, 192.370037)"><g><path d="M 19.671875 0.84375 C 16.148438 0.84375 13.117188 0.265625 10.578125 -0.890625 C 8.046875 -2.054688 6.085938 -3.707031 4.703125 -5.84375 C 3.328125 -7.988281 2.640625 -10.5 2.640625 -13.375 L 12 -13.375 C 12 -11.375 12.6875 -9.8125 14.0625 -8.6875 C 15.445312 -7.570312 17.296875 -7.015625 19.609375 -7.015625 C 21.609375 -7.015625 23.1875 -7.40625 24.34375 -8.1875 C 25.507812 -8.96875 26.09375 -10.054688 26.09375 -11.453125 C 26.09375 -12.929688 25.390625 -14.128906 23.984375 -15.046875 C 22.585938 -15.972656 20.410156 -16.753906 17.453125 -17.390625 C 12.535156 -18.429688 8.894531 -20.007812 6.53125 -22.125 C 4.175781 -24.25 3 -27.007812 3 -30.40625 C 3 -34.25 4.394531 -37.28125 7.1875 -39.5 C 9.988281 -41.71875 13.8125 -42.828125 18.65625 -42.828125 C 21.976562 -42.828125 24.859375 -42.253906 27.296875 -41.109375 C 29.734375 -39.972656 31.617188 -38.375 32.953125 -36.3125 C 34.296875 -34.257812 34.96875 -31.8125 34.96875 -28.96875 L 25.796875 -28.96875 C 25.796875 -30.851562 25.175781 -32.332031 23.9375 -33.40625 C 22.695312 -34.488281 20.976562 -35.03125 18.78125 -35.03125 C 16.78125 -35.03125 15.195312 -34.640625 14.03125 -33.859375 C 12.875 -33.078125 12.296875 -31.988281 12.296875 -30.59375 C 12.296875 -29.3125 12.9375 -28.226562 14.21875 -27.34375 C 15.5 -26.46875 17.738281 -25.648438 20.9375 -24.890625 C 26.175781 -23.648438 29.953125 -21.988281 32.265625 -19.90625 C 34.585938 -17.832031 35.75 -15.132812 35.75 -11.8125 C 35.75 -7.851562 34.316406 -4.753906 31.453125 -2.515625 C 28.597656 -0.273438 24.671875 0.84375 19.671875 0.84375 Z M 19.671875 0.84375 "/></g></g></g><g fill="#000000" fill-opacity="1"><g transform="translate(141.905203, 192.370037)"><g><path d="M 15.109375 0 L 15.109375 -33.046875 L 1.796875 -33.046875 L 1.796875 -41.984375 L 37.96875 -41.984375 L 37.96875 -33.046875 L 24.65625 -33.046875 L 24.65625 0 Z M 15.109375 0 "/></g></g></g><g fill="#000000" fill-opacity="1"><g transform="translate(195.176668, 220.874386)"><g><path d="M 22.1875 0.84375 C 18.550781 0.84375 15.421875 0.113281 12.796875 -1.34375 C 10.179688 -2.8125 8.164062 -4.894531 6.75 -7.59375 C 5.332031 -10.289062 4.625 -13.519531 4.625 -17.28125 L 4.625 -41.984375 L 14.15625 -41.984375 L 14.15625 -17.9375 C 14.15625 -11.457031 16.832031 -8.21875 22.1875 -8.21875 C 27.550781 -8.21875 30.234375 -11.457031 30.234375 -17.9375 L 30.234375 -41.984375 L 39.765625 -41.984375 L 39.765625 -17.28125 C 39.765625 -13.519531 39.054688 -10.289062 37.640625 -7.59375 C 36.222656 -4.894531 34.203125 -2.8125 31.578125 -1.34375 C 28.960938 0.113281 25.832031 0.84375 22.1875 0.84375 Z M 22.1875 0.84375 "/></g></g></g><g fill="#000000" fill-opacity="1"><g transform="translate(251.984035, 220.874386)"><g><path d="M 5.03125 0 L 5.03125 -41.984375 L 14.578125 -41.984375 L 14.578125 -25.859375 L 18.171875 -25.859375 C 20.535156 -25.859375 22.265625 -26.234375 23.359375 -26.984375 C 24.460938 -27.742188 25.375 -29.109375 26.09375 -31.078125 L 30.046875 -41.984375 L 40.375 -41.984375 L 34.546875 -27.046875 C 34.023438 -25.691406 33.4375 -24.472656 32.78125 -23.390625 C 32.125 -22.316406 31.375 -21.378906 30.53125 -20.578125 L 41.875 0 L 30.765625 0 L 21.78125 -17.03125 C 21.414062 -16.988281 21.0625 -16.96875 20.71875 -16.96875 C 20.382812 -16.96875 20.015625 -16.96875 19.609375 -16.96875 L 14.578125 -16.96875 L 14.578125 0 Z M 5.03125 0 "/></g></g></g></svg>